<svg version="1.1" id="Layer_1" xmlns="http://www.w3.org/2000/svg" xmlns:xlink="http://www.w3.org/1999/xlink" x="0px" y="0px"
	 width="100%" viewBox="0 0 512 512" enable-background="new 0 0 512 512" xml:space="preserve">
<path fill="#FFFFFF" opacity="1.000000" stroke="none" 
	d="
M1.000003,432.000000 
	C1.000000,288.378143 1.000000,144.756271 1.000000,1.067204 
	C171.568619,1.067204 342.137268,1.067204 513.000000,1.067204 
	C513.000000,144.023941 513.000000,287.048096 512.616516,430.379272 
	C510.071899,412.035675 503.797974,395.475159 489.800568,382.086578 
	C479.714874,372.439545 467.757812,367.003326 454.774841,362.958160 
	C439.571442,358.221130 424.177368,353.972504 410.883118,344.514374 
	C405.263245,340.516205 399.013519,337.403351 392.905640,333.572845 
	C383.408539,327.496643 374.084198,321.688965 364.685669,316.003876 
	C361.945862,314.346588 360.870850,312.373535 360.896057,308.992218 
	C361.047638,288.667694 360.894165,268.340881 360.924072,247.551422 
	C360.950989,213.389435 360.896759,179.690872 360.911560,145.577728 
	C360.693329,143.090118 360.406036,141.017059 360.073792,138.494751 
	C359.967834,135.027802 359.906769,132.010117 359.914124,128.650024 
	C359.694550,127.519859 359.406555,126.732086 359.073914,125.495010 
	C358.967590,122.027931 358.905884,119.010147 358.911804,115.686623 
	C358.692413,114.902199 358.405426,114.423515 358.073517,113.505211 
	C357.967834,110.707878 357.907013,108.350159 357.913391,105.686592 
	C357.693481,104.901947 357.406403,104.423157 357.074341,103.511383 
	C356.968201,101.049751 356.907043,99.021095 356.913177,96.686615 
	C356.693451,95.901962 356.406433,95.423134 356.074524,94.510574 
	C355.967896,92.044327 355.906128,90.011810 355.877747,87.712784 
	C355.621002,87.252281 355.330841,87.058304 355.030975,86.434845 
	C354.962799,84.001045 354.904358,81.996742 354.913177,79.686615 
	C354.693451,78.901962 354.406433,78.423141 354.074524,77.510559 
	C353.967651,75.044205 353.905670,73.011612 353.877075,70.712692 
	C353.620361,70.252815 353.330322,70.059250 353.030334,69.436111 
	C352.962250,67.001831 352.904022,64.997124 352.913086,62.686596 
	C352.693359,61.901962 352.406342,61.423157 352.074341,60.511375 
	C351.967834,58.049728 351.906342,56.021057 351.912506,53.686646 
	C351.693390,52.901966 351.406647,52.423031 351.074799,51.510380 
	C350.967896,49.044147 350.906067,47.011627 350.877563,44.712669 
	C350.620758,44.252438 350.330658,44.058643 350.030640,43.435326 
	C349.962463,41.001347 349.904175,38.996883 349.913147,36.686592 
	C349.693329,35.901974 349.406311,35.423183 349.074219,34.510654 
	C348.967529,32.044334 348.905853,30.011749 348.877563,27.712713 
	C348.620789,27.252457 348.330658,27.058653 348.030640,26.434626 
	C347.963318,23.996204 347.905914,21.988003 347.881531,19.712460 
	C347.623352,19.251238 347.332123,19.057360 347.032410,18.474560 
	C345.334625,16.716097 343.702606,14.346710 341.940735,14.245898 
	C340.009521,14.135397 337.173676,15.623626 336.122894,17.291447 
	C333.924652,20.780588 332.639191,24.844934 330.980103,28.673611 
	C327.446198,36.828793 323.913116,44.984337 320.434845,53.012527 
	C318.319061,52.177422 316.683685,51.531940 314.883484,50.563156 
	C295.157349,41.071800 274.681702,36.583210 252.556061,38.100487 
	C230.842850,37.396019 211.315247,43.759323 192.880188,53.106754 
	C187.921478,41.720722 182.995926,30.861629 178.495865,19.828987 
	C176.957825,16.058247 175.295776,13.461205 170.786270,13.988833 
	C166.020996,14.546391 165.555542,18.519630 165.104797,21.820545 
	C163.514633,33.465347 162.358521,45.169003 160.999557,56.845886 
	C159.018372,73.868759 156.570068,90.850960 155.122635,107.918488 
	C153.592026,125.966743 152.287384,144.088760 152.137268,162.188965 
	C151.733948,210.817993 151.922928,259.452881 152.123535,308.084412 
	C152.142639,312.714050 150.550644,314.927612 146.701157,317.163513 
	C134.264175,324.387268 122.047974,332.000641 109.878845,339.673462 
	C96.654648,348.011505 83.564888,356.308075 68.031395,360.190002 
	C54.933651,363.463196 41.882504,367.531342 30.966139,376.043121 
	C18.230364,385.973511 9.028253,398.445343 5.018876,414.328278 
	C3.540733,420.183868 2.331757,426.107452 1.000003,432.000000 
z"/>
<path fill="#333333" opacity="1.000000" stroke="none" 
	d="
M1.000003,432.458069 
	C2.331757,426.107452 3.540733,420.183868 5.018876,414.328278 
	C9.028253,398.445343 18.230364,385.973511 30.966139,376.043121 
	C41.882504,367.531342 54.933651,363.463196 68.031395,360.190002 
	C83.564888,356.308075 96.654648,348.011505 109.878845,339.673462 
	C122.047974,332.000641 134.264175,324.387268 146.701157,317.163513 
	C150.550644,314.927612 152.142639,312.714050 152.123535,308.084412 
	C151.922928,259.452881 151.733948,210.817993 152.137268,162.188965 
	C152.287384,144.088760 153.592026,125.966743 155.122635,107.918488 
	C156.570068,90.850960 159.018372,73.868759 160.999557,56.845886 
	C162.358521,45.169003 163.514633,33.465347 165.104797,21.820545 
	C165.555542,18.519630 166.020996,14.546391 170.786270,13.988833 
	C175.295776,13.461205 176.957825,16.058247 178.495865,19.828987 
	C182.995926,30.861629 187.921478,41.720722 192.880188,53.106754 
	C211.315247,43.759323 230.842850,37.396019 252.552460,38.492928 
	C252.852142,39.943100 252.837097,40.967937 252.517502,41.886864 
	C241.904678,72.402504 233.413528,103.454979 228.684799,135.469604 
	C225.666916,155.901443 222.479797,176.315414 222.597321,197.025040 
	C212.032379,192.936813 201.835602,188.899338 191.642975,184.851410 
	C187.767502,183.312271 184.020111,183.345535 181.050262,186.540314 
	C178.095245,189.719116 178.258179,193.491196 180.029541,197.243271 
	C182.301239,202.055206 184.629395,206.840469 186.936813,211.635498 
	C189.086166,216.102020 192.346146,218.333847 197.597946,218.175369 
	C205.740265,217.929672 213.900269,218.270798 222.038620,218.808807 
	C222.021835,228.792114 222.019211,238.329742 221.554108,247.956696 
	C206.888672,248.046036 192.685684,248.046036 178.356506,248.046036 
	C178.356506,251.482254 178.356506,254.254211 178.310760,257.473480 
	C177.240417,270.288361 181.482620,281.179077 188.159363,291.169281 
	C197.453888,305.076447 208.764801,317.099518 223.073120,326.537720 
	C225.155884,328.187164 227.074371,329.558594 229.025543,331.278961 
	C229.580490,332.454193 229.972351,333.410004 230.644836,334.087128 
	C239.316345,342.818512 247.677475,351.903198 256.848114,360.078491 
	C263.337250,365.863312 270.341461,371.717285 278.151703,375.250305 
	C300.319031,385.277924 321.968567,383.096222 342.282318,369.411774 
	C357.812134,358.949951 373.372009,348.532471 388.861908,338.011902 
	C390.456177,336.929108 391.663300,335.276367 393.050079,333.888092 
	C399.013519,337.403351 405.263245,340.516205 410.883118,344.514374 
	C424.177368,353.972504 439.571442,358.221130 454.774841,362.958160 
	C467.757812,367.003326 479.714874,372.439545 489.800568,382.086578 
	C503.797974,395.475159 510.071899,412.035675 512.616516,430.843140 
	C513.000000,434.692902 513.000000,438.385834 512.651855,442.633820 
	C510.764587,444.472900 509.414337,446.173737 507.654724,446.970947 
	C498.553833,451.094238 489.582672,455.695282 480.133148,458.820007 
	C456.292603,466.703430 432.462708,474.829010 408.170044,481.074310 
	C385.479675,486.907745 362.300842,491.080475 339.145233,494.785675 
	C322.046082,497.521759 304.665771,499.261322 287.361847,499.765259 
	C265.479797,500.402588 243.531998,499.737000 221.643600,498.859222 
	C207.432053,498.289307 193.234451,496.671295 179.105988,494.915955 
	C163.301804,492.952423 147.379211,491.210541 131.876328,487.731445 
	C110.661713,482.970673 89.621590,477.224945 68.833290,470.838257 
	C52.544491,465.833893 36.649086,459.474121 20.786333,453.192749 
	C13.921879,450.474487 7.579523,446.437775 1.000002,443.000000 
	C1.000000,439.638702 1.000000,436.277435 1.000003,432.458069 
M23.386696,415.475372 
	C22.251320,420.307495 20.815393,425.099579 20.163654,429.996094 
	C19.968035,431.465790 21.577986,434.109253 23.003265,434.722992 
	C49.906811,446.308502 77.451660,456.282837 105.958588,462.937347 
	C130.132462,468.580353 154.620087,473.106781 179.161453,476.872314 
	C197.148987,479.632233 215.420074,480.962372 233.617065,481.817505 
	C250.739853,482.622162 267.936249,482.219543 285.090302,481.865326 
	C295.364838,481.653137 305.680511,480.987091 315.870911,479.687592 
	C333.615143,477.424744 351.276855,474.514465 369.776245,471.859283 
	C374.477234,470.894714 379.190430,469.985687 383.877319,468.956818 
	C420.447235,460.928802 455.964630,449.577820 490.534943,435.215790 
	C493.231903,434.095337 494.394867,432.593353 494.048798,429.583221 
	C492.234497,413.802856 485.405609,400.818207 472.866302,390.947357 
	C463.324707,383.436218 451.729309,380.631866 440.490143,377.164734 
	C432.459076,374.687317 424.284363,371.869598 416.007416,371.169250 
	C400.519714,369.858704 385.430450,373.639404 371.497040,380.010834 
	C350.360565,389.676056 329.804169,400.609772 308.266510,411.071838 
	C303.950989,412.812714 299.656586,414.608307 295.316345,416.285126 
	C274.135132,424.468231 252.662079,426.956665 230.470047,420.357697 
	C208.128281,413.714203 187.983185,402.365540 167.332550,392.009125 
	C155.777740,386.214355 143.748306,381.365997 131.203400,375.890900 
	C113.804398,370.722198 96.401703,367.304840 78.878708,375.468933 
	C77.244034,376.230560 75.361633,376.440521 73.655045,377.071136 
	C64.642784,380.401306 55.186954,382.909058 46.764942,387.365173 
	C35.643620,393.249512 27.509062,402.447174 23.386696,415.475372 
z"/>
<path fill="#FFFFFF" opacity="1.000000" stroke="none" 
	d="
M1.000002,443.468658 
	C7.579523,446.437775 13.921879,450.474487 20.786333,453.192749 
	C36.649086,459.474121 52.544491,465.833893 68.833290,470.838257 
	C89.621590,477.224945 110.661713,482.970673 131.876328,487.731445 
	C147.379211,491.210541 163.301804,492.952423 179.105988,494.915955 
	C193.234451,496.671295 207.432053,498.289307 221.643600,498.859222 
	C243.531998,499.737000 265.479797,500.402588 287.361847,499.765259 
	C304.665771,499.261322 322.046082,497.521759 339.145233,494.785675 
	C362.300842,491.080475 385.479675,486.907745 408.170044,481.074310 
	C432.462708,474.829010 456.292603,466.703430 480.133148,458.820007 
	C489.582672,455.695282 498.553833,451.094238 507.654724,446.970947 
	C509.414337,446.173737 510.764587,444.472900 512.651855,443.094452 
	C513.000000,466.317657 513.000000,489.635345 513.000000,512.949280 
	C342.333313,512.945557 171.666656,512.945557 1.000000,512.945557 
	C1.000000,489.906555 1.000000,466.921936 1.000002,443.468658 
z"/>
<path fill="#222222" opacity="1.000000" stroke="none" 
	d="
M392.905640,333.572845 
	C391.663300,335.276367 390.456177,336.929108 388.861908,338.011902 
	C373.372009,348.532471 357.812134,358.949951 342.282318,369.411774 
	C321.968567,383.096222 300.319031,385.277924 278.151703,375.250305 
	C270.341461,371.717285 263.337250,365.863312 256.848114,360.078491 
	C247.677475,351.903198 239.316345,342.818512 230.644836,334.087128 
	C229.972351,333.410004 229.580490,332.454193 229.393158,331.357605 
	C236.143356,332.432678 242.558594,333.778107 249.278015,335.341553 
	C253.396896,335.597626 257.222137,335.835052 261.024261,335.634521 
	C270.468140,335.136353 279.689819,334.024231 287.916718,328.472321 
	C299.455566,320.685333 309.631287,311.473389 318.449371,300.759705 
	C330.952759,285.568604 338.501190,268.793793 334.217773,248.017105 
	C332.936890,248.017105 331.312744,248.017105 329.688599,248.017105 
	C315.879456,248.017105 302.065216,248.235504 288.263702,247.910873 
	C282.648285,247.778793 278.152435,249.151382 273.688507,252.648224 
	C268.405731,256.786499 262.415588,260.021820 256.816162,263.130920 
	C256.578552,242.471588 256.256866,222.329880 255.935181,202.188187 
	C253.899216,202.422424 253.249161,202.731628 252.997955,203.238510 
	C245.634598,218.095657 238.310959,232.972488 230.537674,247.919128 
	C227.401779,247.950500 224.709167,247.908936 222.016571,247.867371 
	C222.019211,238.329742 222.021835,228.792114 222.488663,218.721252 
	C225.111115,218.167389 227.272964,218.057266 229.426849,218.144455 
	C234.169785,218.336441 237.539658,216.461060 238.810379,211.756378 
	C239.934540,207.594284 237.658142,203.661804 232.948486,201.422424 
	C229.672455,199.864716 226.297745,198.514526 222.967102,197.071640 
	C222.479797,176.315414 225.666916,155.901443 228.684799,135.469604 
	C233.413528,103.454979 241.904678,72.402504 252.517502,41.886864 
	C252.837097,40.967937 252.852142,39.943100 253.012787,38.575203 
	C274.681702,36.583210 295.157349,41.071800 314.870300,51.003555 
	C315.371765,61.628624 318.236542,70.730591 324.181122,78.579369 
	C340.656250,100.331749 348.891907,124.811531 348.978973,152.030334 
	C349.068359,179.968475 348.992432,207.907120 349.003510,235.845551 
	C349.006531,243.421982 353.293427,247.801666 360.842896,248.014847 
	C360.894165,268.340881 361.047638,288.667694 360.896057,308.992218 
	C360.870850,312.373535 361.945862,314.346588 364.685669,316.003876 
	C374.084198,321.688965 383.408539,327.496643 392.905640,333.572845 
M313.370697,218.125778 
	C318.152344,218.345947 322.781372,218.306458 325.326324,213.095184 
	C328.025208,207.568665 330.899841,202.127762 333.585144,196.594833 
	C335.342773,192.973373 334.951385,189.545853 332.182739,186.473480 
	C329.289917,183.263321 325.640259,183.187485 322.093750,184.569260 
	C308.165741,189.995834 294.289795,195.560364 280.465027,201.245193 
	C275.437775,203.312424 273.151062,207.271576 274.286652,211.323837 
	C275.635406,216.136703 278.934723,218.228333 283.953339,218.159363 
	C293.434845,218.029053 302.919464,218.124527 313.370697,218.125778 
z"/>
<path fill="#333333" opacity="1.000000" stroke="none" 
	d="
M360.924072,247.551422 
	C353.293427,247.801666 349.006531,243.421982 349.003510,235.845551 
	C348.992432,207.907120 349.068359,179.968475 348.978973,152.030334 
	C348.891907,124.811531 340.656250,100.331749 324.181122,78.579369 
	C318.236542,70.730591 315.371765,61.628624 315.035187,51.326859 
	C316.683685,51.531940 318.319061,52.177422 320.434845,53.012527 
	C323.913116,44.984337 327.446198,36.828793 330.980103,28.673611 
	C332.639191,24.844934 333.924652,20.780588 336.122894,17.291447 
	C337.173676,15.623626 340.009521,14.135397 341.940735,14.245898 
	C343.702606,14.346710 345.334625,16.716097 347.105042,18.701767 
	C347.322937,19.622591 347.543732,19.843225 347.848511,19.979801 
	C347.905914,21.988003 347.963318,23.996204 348.102844,26.661173 
	C348.321503,27.621281 348.541260,27.841690 348.844177,27.979166 
	C348.905853,30.011749 348.967529,32.044334 348.832764,34.663712 
	C349.039520,35.831150 349.442688,36.411789 349.845886,36.992424 
	C349.904175,38.996883 349.962463,41.001347 350.102844,43.661869 
	C350.321503,44.621273 350.541260,44.841663 350.844238,44.979111 
	C350.906067,47.011627 350.967896,49.044147 350.833130,51.663391 
	C351.039307,52.830872 351.442078,53.411629 351.844849,53.992386 
	C351.906342,56.021057 351.967834,58.049728 351.832855,60.664429 
	C352.039490,61.831116 352.442657,62.411774 352.845825,62.992428 
	C352.904022,64.997124 352.962250,67.001831 353.102692,69.662407 
	C353.321564,70.621254 353.541138,70.841499 353.843689,70.979012 
	C353.905670,73.011612 353.967651,75.044205 353.833069,77.663589 
	C354.039642,78.831062 354.442780,79.411751 354.845917,79.992432 
	C354.904358,81.996742 354.962799,84.001045 355.103119,86.661499 
	C355.321564,87.621147 355.541351,87.841698 355.844391,87.979301 
	C355.906128,90.011810 355.967896,92.044327 355.833069,94.663620 
	C356.039612,95.831078 356.442749,96.411758 356.845917,96.992447 
	C356.907043,99.021095 356.968201,101.049751 356.832886,103.664459 
	C357.039703,104.831154 357.442963,105.411797 357.846222,105.992447 
	C357.907013,108.350159 357.967834,110.707878 357.832214,113.658302 
	C358.038635,114.831467 358.441406,115.411919 358.844208,115.992363 
	C358.905884,119.010147 358.967590,122.027931 358.806427,125.677399 
	C359.004303,127.203537 359.425018,128.097977 359.845734,128.992432 
	C359.906769,132.010117 359.967834,135.027802 359.774811,138.741821 
	C359.961365,141.622879 360.401947,143.807587 360.842529,145.992294 
	C360.896759,179.690872 360.950989,213.389435 360.924072,247.551422 
z"/>
<path fill="#2A2A2A" opacity="1.000000" stroke="none" 
	d="
M360.911560,145.577728 
	C360.401947,143.807587 359.961365,141.622879 359.819733,139.191086 
	C360.406036,141.017059 360.693329,143.090118 360.911560,145.577728 
z"/>
<path fill="#2A2A2A" opacity="1.000000" stroke="none" 
	d="
M359.914124,128.650024 
	C359.425018,128.097977 359.004303,127.203537 358.851074,126.126694 
	C359.406555,126.732086 359.694550,127.519859 359.914124,128.650024 
z"/>
<path fill="#2A2A2A" opacity="1.000000" stroke="none" 
	d="
M358.911804,115.686623 
	C358.441406,115.411919 358.038635,114.831467 357.877136,114.097923 
	C358.405426,114.423515 358.692413,114.902199 358.911804,115.686623 
z"/>
<path fill="#2A2A2A" opacity="1.000000" stroke="none" 
	d="
M351.912506,53.686642 
	C351.442078,53.411629 351.039307,52.830872 350.878204,52.097107 
	C351.406647,52.423031 351.693390,52.901966 351.912506,53.686642 
z"/>
<path fill="#2A2A2A" opacity="1.000000" stroke="none" 
	d="
M352.913086,62.686600 
	C352.442657,62.411774 352.039490,61.831116 351.877808,61.097404 
	C352.406342,61.423157 352.693359,61.901962 352.913086,62.686600 
z"/>
<path fill="#2A2A2A" opacity="1.000000" stroke="none" 
	d="
M354.913177,79.686615 
	C354.442780,79.411751 354.039642,78.831062 353.877960,78.097351 
	C354.406433,78.423141 354.693451,78.901962 354.913177,79.686615 
z"/>
<path fill="#2A2A2A" opacity="1.000000" stroke="none" 
	d="
M356.913177,96.686615 
	C356.442749,96.411758 356.039612,95.831078 355.877960,95.097351 
	C356.406433,95.423134 356.693451,95.901962 356.913177,96.686615 
z"/>
<path fill="#2A2A2A" opacity="1.000000" stroke="none" 
	d="
M349.913147,36.686596 
	C349.442688,36.411789 349.039520,35.831150 348.877808,35.097450 
	C349.406311,35.423183 349.693329,35.901974 349.913147,36.686596 
z"/>
<path fill="#2A2A2A" opacity="1.000000" stroke="none" 
	d="
M357.913391,105.686584 
	C357.442963,105.411797 357.039703,104.831154 356.877869,104.097435 
	C357.406403,104.423157 357.693481,104.901947 357.913391,105.686584 
z"/>
<path fill="#2A2A2A" opacity="1.000000" stroke="none" 
	d="
M353.877075,70.712692 
	C353.541138,70.841499 353.321564,70.621254 353.112610,70.091988 
	C353.330322,70.059250 353.620361,70.252815 353.877075,70.712692 
z"/>
<path fill="#2A2A2A" opacity="1.000000" stroke="none" 
	d="
M355.877747,87.712784 
	C355.541351,87.841698 355.321564,87.621147 355.112854,87.090996 
	C355.330841,87.058304 355.621002,87.252281 355.877747,87.712784 
z"/>
<path fill="#2A2A2A" opacity="1.000000" stroke="none" 
	d="
M348.877533,27.712713 
	C348.541260,27.841690 348.321503,27.621281 348.112762,27.091394 
	C348.330658,27.058653 348.620789,27.252457 348.877533,27.712713 
z"/>
<path fill="#2A2A2A" opacity="1.000000" stroke="none" 
	d="
M347.881531,19.712460 
	C347.543732,19.843225 347.322937,19.622591 347.113525,19.090689 
	C347.332123,19.057360 347.623352,19.251238 347.881531,19.712460 
z"/>
<path fill="#2A2A2A" opacity="1.000000" stroke="none" 
	d="
M350.877533,44.712669 
	C350.541260,44.841663 350.321503,44.621273 350.112762,44.091393 
	C350.330658,44.058643 350.620758,44.252438 350.877533,44.712669 
z"/>
<path fill="#656E70" opacity="1.000000" stroke="none" 
	d="
M131.932739,376.091217 
	C143.748306,381.365997 155.777740,386.214355 167.332550,392.009125 
	C187.983185,402.365540 208.128281,413.714203 230.470047,420.357697 
	C252.662079,426.956665 274.135132,424.468231 295.316345,416.285126 
	C299.656586,414.608307 303.950989,412.812714 308.777954,411.337463 
	C316.417633,418.793457 323.468994,426.062134 330.694977,433.152893 
	C338.499054,440.811005 346.590363,448.178772 354.318573,455.910889 
	C359.420532,461.015472 364.102905,466.539398 368.973145,471.875580 
	C351.276855,474.514465 333.615143,477.424744 315.870911,479.687592 
	C305.680511,480.987091 295.364838,481.653137 285.090302,481.865326 
	C267.936249,482.219543 250.739853,482.622162 233.617065,481.817505 
	C215.420074,480.962372 197.148987,479.632233 179.161453,476.872314 
	C154.620087,473.106781 130.132462,468.580353 105.958588,462.937347 
	C77.451660,456.282837 49.906811,446.308502 23.003265,434.722992 
	C21.577986,434.109253 19.968035,431.465790 20.163654,429.996094 
	C20.815393,425.099579 22.251320,420.307495 24.053793,415.190918 
	C33.120747,413.632935 39.529778,409.085236 45.507111,403.255188 
	C48.350353,400.482025 52.350288,398.355255 56.203236,397.250427 
	C72.705017,392.518585 89.370537,388.361511 105.928566,383.820526 
	C114.647430,381.429382 123.267860,378.679260 131.932739,376.091217 
z"/>
<path fill="#5E6668" opacity="1.000000" stroke="none" 
	d="
M369.374695,471.867432 
	C364.102905,466.539398 359.420532,461.015472 354.318573,455.910889 
	C346.590363,448.178772 338.499054,440.811005 330.694977,433.152893 
	C323.468994,426.062134 316.417633,418.793457 309.145355,411.303864 
	C329.804169,400.609772 350.360565,389.676056 371.497040,380.010834 
	C385.430450,373.639404 400.519714,369.858704 416.007416,371.169250 
	C424.284363,371.869598 432.459076,374.687317 440.490143,377.164734 
	C451.729309,380.631866 463.324707,383.436218 472.866302,390.947357 
	C485.405609,400.818207 492.234497,413.802856 494.048798,429.583221 
	C494.394867,432.593353 493.231903,434.095337 490.534943,435.215790 
	C455.964630,449.577820 420.447235,460.928802 383.877319,468.956818 
	C379.190430,469.985687 374.477234,470.894714 369.374695,471.867432 
z"/>
<path fill="#F4CFC5" opacity="1.000000" stroke="none" 
	d="
M248.973831,335.123535 
	C242.558594,333.778107 236.143356,332.432678 229.360489,331.008667 
	C227.074371,329.558594 225.155884,328.187164 223.099930,326.052063 
	C222.637405,314.909119 222.312363,304.529816 222.377747,294.095337 
	C227.975647,292.372284 233.128281,290.501373 238.401642,289.077637 
	C250.463806,285.821045 262.609833,285.829773 274.667236,289.092346 
	C279.622833,290.433258 284.367523,292.616058 289.362305,293.715210 
	C291.065735,294.089996 293.803802,292.779449 294.970093,291.345245 
	C295.581879,290.592987 294.257660,286.742584 293.052429,286.286285 
	C285.792023,283.537537 278.415741,279.827820 270.885284,279.323975 
	C255.415894,278.288971 239.620300,277.333496 224.918106,284.490204 
	C224.062836,284.906525 222.986115,284.867889 222.008667,284.569733 
	C222.002243,275.068115 221.999588,266.037720 222.464752,257.004059 
	C232.890869,255.894165 241.872009,257.618774 249.507584,264.863281 
	C253.688187,268.829742 259.529785,270.462982 264.855164,268.738251 
	C270.233429,266.996338 274.978394,263.307068 280.013092,260.492889 
	C282.142822,259.302399 284.278534,257.223175 286.454956,257.164764 
	C298.603333,256.838837 310.765747,256.951355 322.920807,257.110779 
	C323.944794,257.124237 325.861542,258.643066 325.817169,259.367767 
	C325.506317,264.443268 325.747986,269.850189 324.025879,274.487396 
	C318.256775,290.022034 306.734161,301.442383 294.886871,312.426910 
	C284.541260,322.019104 272.411194,327.388031 258.020355,327.028198 
	C251.986252,326.877350 250.042694,328.778687 248.973831,335.123535 
M255.501251,304.979279 
	C261.326111,304.971680 267.184052,305.308289 272.956238,304.753113 
	C274.759003,304.579681 277.413879,302.220886 277.772522,300.471680 
	C278.436035,297.235352 275.798584,295.988220 272.693726,295.994965 
	C262.208893,296.017731 251.723663,295.957611 241.239319,296.032318 
	C238.337845,296.053009 235.116821,296.449646 235.155609,300.282501 
	C235.190598,303.741699 237.794586,304.981445 241.022202,304.977997 
	C245.515732,304.973175 250.009247,304.978333 255.501251,304.979279 
z"/>
<path fill="#EDC0B4" opacity="1.000000" stroke="none" 
	d="
M249.278015,335.341553 
	C250.042694,328.778687 251.986252,326.877350 258.020355,327.028198 
	C272.411194,327.388031 284.541260,322.019104 294.886871,312.426910 
	C306.734161,301.442383 318.256775,290.022034 324.025879,274.487396 
	C325.747986,269.850189 325.506317,264.443268 325.817169,259.367767 
	C325.861542,258.643066 323.944794,257.124237 322.920807,257.110779 
	C310.765747,256.951355 298.603333,256.838837 286.454956,257.164764 
	C284.278534,257.223175 282.142822,259.302399 280.013092,260.492889 
	C274.978394,263.307068 270.233429,266.996338 264.855164,268.738251 
	C259.529785,270.462982 253.688187,268.829742 249.507584,264.863281 
	C241.872009,257.618774 232.890869,255.894165 221.996460,257.000458 
	C206.825729,257.008789 192.591125,257.017487 178.356506,257.026154 
	C178.356506,254.254211 178.356506,251.482254 178.356506,248.046036 
	C192.685684,248.046036 206.888672,248.046036 221.554108,247.956696 
	C224.709167,247.908936 227.401779,247.950500 230.896332,247.993286 
	C235.537598,250.542068 239.322388,253.177048 243.230637,255.614075 
	C247.673569,258.384521 252.226776,260.978088 256.732056,263.648529 
	C262.415588,260.021820 268.405731,256.786499 273.688507,252.648224 
	C278.152435,249.151382 282.648285,247.778793 288.263702,247.910873 
	C302.065216,248.235504 315.879456,248.017105 329.688599,248.017105 
	C331.312744,248.017105 332.936890,248.017105 334.217773,248.017105 
	C338.501190,268.793793 330.952759,285.568604 318.449371,300.759705 
	C309.631287,311.473389 299.455566,320.685333 287.916718,328.472321 
	C279.689819,334.024231 270.468140,335.136353 261.024261,335.634521 
	C257.222137,335.835052 253.396896,335.597626 249.278015,335.341553 
z"/>
<path fill="#F4D3CA" opacity="1.000000" stroke="none" 
	d="
M178.310760,257.473480 
	C192.591125,257.017487 206.825729,257.008789 221.528641,257.003723 
	C221.999588,266.037720 222.002243,275.068115 221.792511,284.836060 
	C216.463608,289.273956 216.569855,291.512085 221.987320,294.150543 
	C222.312363,304.529816 222.637405,314.909119 222.935638,325.774017 
	C208.764801,317.099518 197.453888,305.076447 188.159363,291.169281 
	C181.482620,281.179077 177.240417,270.288361 178.310760,257.473480 
z"/>
<path fill="#777E7F" opacity="1.000000" stroke="none" 
	d="
M131.568069,375.991058 
	C123.267860,378.679260 114.647430,381.429382 105.928566,383.820526 
	C89.370537,388.361511 72.705017,392.518585 56.203236,397.250427 
	C52.350288,398.355255 48.350353,400.482025 45.507111,403.255188 
	C39.529778,409.085236 33.120747,413.632935 24.327198,414.947449 
	C27.509062,402.447174 35.643620,393.249512 46.764942,387.365173 
	C55.186954,382.909058 64.642784,380.401306 73.655045,377.071136 
	C75.361633,376.440521 77.244034,376.230560 78.878708,375.468933 
	C96.401703,367.304840 113.804398,370.722198 131.568069,375.991058 
z"/>
<path fill="#767676" opacity="1.000000" stroke="none" 
	d="
M222.597321,197.025040 
	C226.297745,198.514526 229.672455,199.864716 232.948486,201.422424 
	C237.658142,203.661804 239.934540,207.594284 238.810379,211.756378 
	C237.539658,216.461060 234.169785,218.336441 229.426849,218.144455 
	C227.272964,218.057266 225.111115,218.167389 222.502823,218.275574 
	C213.900269,218.270798 205.740265,217.929672 197.597946,218.175369 
	C192.346146,218.333847 189.086166,216.102020 186.936813,211.635498 
	C184.629395,206.840469 182.301239,202.055206 180.029541,197.243271 
	C178.258179,193.491196 178.095245,189.719116 181.050262,186.540314 
	C184.020111,183.345535 187.767502,183.312271 191.642975,184.851410 
	C201.835602,188.899338 212.032379,192.936813 222.597321,197.025040 
z"/>
<path fill="#767676" opacity="1.000000" stroke="none" 
	d="
M312.886719,218.125977 
	C302.919464,218.124527 293.434845,218.029053 283.953339,218.159363 
	C278.934723,218.228333 275.635406,216.136703 274.286652,211.323837 
	C273.151062,207.271576 275.437775,203.312424 280.465027,201.245193 
	C294.289795,195.560364 308.165741,189.995834 322.093750,184.569260 
	C325.640259,183.187485 329.289917,183.263321 332.182739,186.473480 
	C334.951385,189.545853 335.342773,192.973373 333.585144,196.594833 
	C330.899841,202.127762 328.025208,207.568665 325.326324,213.095184 
	C322.781372,218.306458 318.152344,218.345947 312.886719,218.125977 
z"/>
<path fill="#333333" opacity="1.000000" stroke="none" 
	d="
M256.816162,263.130920 
	C252.226776,260.978088 247.673569,258.384521 243.230637,255.614075 
	C239.322388,253.177048 235.537598,250.542068 231.339630,247.920349 
	C238.310959,232.972488 245.634598,218.095657 252.997955,203.238510 
	C253.249161,202.731628 253.899216,202.422424 255.935181,202.188187 
	C256.256866,222.329880 256.578552,242.471588 256.816162,263.130920 
z"/>
<path fill="#C7A8A3" opacity="1.000000" stroke="none" 
	d="
M222.377747,294.095337 
	C216.569855,291.512085 216.463608,289.273956 221.796295,285.307312 
	C222.986115,284.867889 224.062836,284.906525 224.918106,284.490204 
	C239.620300,277.333496 255.415894,278.288971 270.885284,279.323975 
	C278.415741,279.827820 285.792023,283.537537 293.052429,286.286285 
	C294.257660,286.742584 295.581879,290.592987 294.970093,291.345245 
	C293.803802,292.779449 291.065735,294.089996 289.362305,293.715210 
	C284.367523,292.616058 279.622833,290.433258 274.667236,289.092346 
	C262.609833,285.829773 250.463806,285.821045 238.401642,289.077637 
	C233.128281,290.501373 227.975647,292.372284 222.377747,294.095337 
z"/>
<path fill="#C8A8A3" opacity="1.000000" stroke="none" 
	d="
M255.002014,304.979248 
	C250.009247,304.978333 245.515732,304.973175 241.022202,304.977997 
	C237.794586,304.981445 235.190598,303.741699 235.155609,300.282501 
	C235.116821,296.449646 238.337845,296.053009 241.239319,296.032318 
	C251.723663,295.957611 262.208893,296.017731 272.693726,295.994965 
	C275.798584,295.988220 278.436035,297.235352 277.772522,300.471680 
	C277.413879,302.220886 274.759003,304.579681 272.956238,304.753113 
	C267.184052,305.308289 261.326111,304.971680 255.002014,304.979248 
z"/>
</svg>