<svg version="1.1" id="Layer_1" xmlns="http://www.w3.org/2000/svg" xmlns:xlink="http://www.w3.org/1999/xlink" x="0px" y="0px"
	 width="100%" viewBox="0 0 512 512" enable-background="new 0 0 512 512" xml:space="preserve">
<path fill="#000000" opacity="1.000000" stroke="none" 
	d="
M1.000000,426.000000 
	C1.000000,284.377838 1.000000,142.755707 1.000000,1.066775 
	C171.568497,1.066775 342.137024,1.066775 513.000000,1.066775 
	C513.000000,142.023941 513.000000,283.048096 512.630432,424.466614 
	C511.822083,423.855682 511.194153,422.890350 510.971985,421.839233 
	C504.514008,391.284882 485.946716,372.427582 456.205109,363.369080 
	C442.651398,359.240997 428.559357,356.206116 416.465271,347.896606 
	C408.983154,342.755890 400.849915,338.562805 392.839417,333.652405 
	C383.692963,327.714111 374.886230,321.765778 365.658417,316.564453 
	C361.765320,314.370148 360.913788,311.827423 360.934784,307.802582 
	C361.038940,287.846436 360.900940,267.889008 360.878662,247.470184 
	C360.590302,209.547333 360.512512,172.081894 359.820526,134.627792 
	C359.582184,121.726631 358.065552,108.826515 356.682556,95.974380 
	C354.644257,77.032341 352.191772,58.134987 349.939117,39.215809 
	C349.194366,32.960732 348.606476,26.685863 347.780853,20.441990 
	C347.367340,17.314613 346.105957,14.596216 342.429749,14.186505 
	C338.761383,13.777670 336.418854,15.579809 335.085632,18.887325 
	C334.712372,19.813353 334.373383,20.753857 333.978058,21.670212 
	C329.518341,32.007713 325.050720,42.341797 320.501801,52.869831 
	C318.406372,52.104378 316.712738,51.485703 314.780884,50.615074 
	C295.098297,40.843884 274.574890,36.730446 252.500031,38.050880 
	C230.966751,37.371006 211.605515,43.659389 192.805588,53.291500 
	C187.862427,41.764362 183.052322,30.850418 178.526474,19.819838 
	C177.057205,16.238844 175.341614,13.609543 171.024475,14.063766 
	C166.448685,14.545200 165.651154,18.265507 165.178192,21.656542 
	C163.921188,30.668839 163.018478,39.731430 162.028229,48.779861 
	C160.281296,64.742767 158.331589,80.688469 156.910233,96.680786 
	C155.048630,117.626244 152.512970,138.594620 152.221924,159.580261 
	C151.533722,209.201736 151.987335,258.839264 152.031754,308.470245 
	C152.034561,311.597229 151.800507,314.112885 148.627777,316.029114 
	C130.492157,326.982666 112.582962,338.313660 94.373825,349.141388 
	C88.758919,352.480225 82.580170,355.015228 76.420021,357.261108 
	C65.357185,361.294464 53.483704,363.582489 43.074402,368.831635 
	C20.740191,380.094086 6.764679,398.322815 2.891229,423.581238 
	C2.755942,424.463409 1.652307,425.197113 1.000000,426.000000 
z"/>
<path fill="#333333" opacity="1.000000" stroke="none" 
	d="
M1.000000,426.467957 
	C1.652307,425.197113 2.755942,424.463409 2.891229,423.581238 
	C6.764679,398.322815 20.740191,380.094086 43.074402,368.831635 
	C53.483704,363.582489 65.357185,361.294464 76.420021,357.261108 
	C82.580170,355.015228 88.758919,352.480225 94.373825,349.141388 
	C112.582962,338.313660 130.492157,326.982666 148.627777,316.029114 
	C151.800507,314.112885 152.034561,311.597229 152.031754,308.470245 
	C151.987335,258.839264 151.533722,209.201736 152.221924,159.580261 
	C152.512970,138.594620 155.048630,117.626244 156.910233,96.680786 
	C158.331589,80.688469 160.281296,64.742767 162.028229,48.779861 
	C163.018478,39.731430 163.921188,30.668839 165.178192,21.656542 
	C165.651154,18.265507 166.448685,14.545200 171.024475,14.063766 
	C175.341614,13.609543 177.057205,16.238844 178.526474,19.819838 
	C183.052322,30.850418 187.862427,41.764362 192.805588,53.291500 
	C211.605515,43.659389 230.966751,37.371006 252.507965,38.445099 
	C249.630020,49.811783 246.149719,60.726353 242.956390,71.724243 
	C231.621399,110.762253 224.423523,150.500702 222.927429,191.198654 
	C222.865524,192.882294 221.917084,194.533340 221.039093,196.184723 
	C211.271057,192.500397 201.832550,188.863998 192.426193,185.146255 
	C188.270187,183.503632 184.216354,183.041290 180.956619,186.673813 
	C177.751099,190.245911 178.389786,194.329544 180.335556,198.305786 
	C182.523804,202.777573 184.833969,207.190094 186.993942,211.675201 
	C189.164810,216.182892 192.496368,218.316422 197.663605,218.207779 
	C205.785645,218.037003 213.917557,218.335342 222.038025,218.876373 
	C222.026459,228.834305 222.022141,238.350891 221.555389,247.957031 
	C206.897675,248.046570 192.702362,248.046570 178.356644,248.046570 
	C178.356644,251.491653 178.356644,254.259064 178.314819,257.480530 
	C177.204575,271.059570 182.063431,282.351868 189.295547,292.816528 
	C198.423553,306.024536 209.359482,317.467743 223.072830,326.536682 
	C225.155930,328.186340 227.074020,329.557831 229.059753,331.269653 
	C229.644760,332.450256 230.016113,333.440247 230.701263,334.108459 
	C241.904236,345.034546 252.886230,356.207397 264.472076,366.713593 
	C272.211395,373.731750 281.659821,378.066559 292.036255,379.995087 
	C311.232239,383.562744 328.567871,379.231842 344.517029,368.062042 
	C358.838501,358.032043 373.492218,348.477386 387.937561,338.622406 
	C389.817108,337.340149 391.327545,335.516937 393.008942,333.944305 
	C400.849915,338.562805 408.983154,342.755890 416.465271,347.896606 
	C428.559357,356.206116 442.651398,359.240997 456.205109,363.369080 
	C485.946716,372.427582 504.514008,391.284882 510.971985,421.839233 
	C511.194153,422.890350 511.822083,423.855682 512.630432,424.930511 
	C513.000000,431.021149 513.000000,437.042297 512.652588,443.556824 
	C509.445404,445.681824 506.719177,447.635681 503.701752,448.887421 
	C492.673981,453.462250 481.695984,458.226288 470.427307,462.135284 
	C452.405426,468.386963 434.441528,475.150391 415.951172,479.621826 
	C391.525726,485.528534 366.716858,490.073090 341.881195,493.987305 
	C322.951416,496.970795 303.757233,499.172516 284.620819,499.754974 
	C249.276703,500.830658 213.864807,500.660645 178.790314,495.005066 
	C158.368027,491.712036 137.917236,488.447144 117.671387,484.244202 
	C89.030106,478.298401 61.272316,469.111053 33.933292,458.812622 
	C22.690853,454.577698 11.962302,448.978577 1.000003,444.000000 
	C1.000000,438.311951 1.000000,432.623932 1.000000,426.467957 
M308.275299,411.112610 
	C305.809052,412.105103 303.313080,413.030121 300.881104,414.100433 
	C273.766602,426.033813 246.244797,428.279327 218.664429,416.280945 
	C201.311630,408.731873 184.494324,399.960114 167.337097,391.950470 
	C155.619446,386.480225 143.729782,381.378448 131.229614,375.810822 
	C124.081886,374.261078 116.988823,372.333710 109.768074,371.288452 
	C104.572014,370.536224 98.884018,369.766083 93.976562,371.087585 
	C80.168953,374.805756 66.392975,378.940948 53.089497,384.150208 
	C38.848888,389.726501 28.643078,399.982544 23.435122,415.536804 
	C22.383732,419.382721 21.294056,423.218689 20.291180,427.077209 
	C19.178339,431.358856 20.309105,433.841644 24.917412,435.752869 
	C65.359688,452.526123 106.935936,465.628571 150.159744,472.575623 
	C176.546341,476.816559 203.209778,480.267212 229.874176,481.641541 
	C276.525635,484.046082 323.013916,481.008118 369.748230,471.781738 
	C411.058990,463.755981 451.133667,451.686249 489.934143,435.346252 
	C493.406830,433.883789 494.499756,432.036621 493.973938,428.586517 
	C490.770081,407.563995 480.184967,391.968597 460.122437,383.943176 
	C450.097107,379.932770 439.720825,376.707489 429.326172,373.749329 
	C423.667755,372.139069 417.644196,371.120972 411.775909,371.076416 
	C397.609253,370.968750 383.843231,374.230042 371.128632,380.131531 
	C350.160217,389.863953 329.685089,400.659210 308.275299,411.112610 
z"/>
<path fill="#000000" opacity="1.000000" stroke="none" 
	d="
M1.000003,444.468658 
	C11.962302,448.978577 22.690853,454.577698 33.933292,458.812622 
	C61.272316,469.111053 89.030106,478.298401 117.671387,484.244202 
	C137.917236,488.447144 158.368027,491.712036 178.790314,495.005066 
	C213.864807,500.660645 249.276703,500.830658 284.620819,499.754974 
	C303.757233,499.172516 322.951416,496.970795 341.881195,493.987305 
	C366.716858,490.073090 391.525726,485.528534 415.951172,479.621826 
	C434.441528,475.150391 452.405426,468.386963 470.427307,462.135284 
	C481.695984,458.226288 492.673981,453.462250 503.701752,448.887421 
	C506.719177,447.635681 509.445404,445.681824 512.652588,444.025085 
	C513.000000,466.984528 513.000000,489.969025 513.000000,512.949707 
	C342.333313,512.945862 171.666656,512.945862 1.000000,512.945862 
	C1.000000,490.240265 1.000000,467.588776 1.000003,444.468658 
z"/>
<path fill="#222222" opacity="1.000000" stroke="none" 
	d="
M392.839417,333.652405 
	C391.327545,335.516937 389.817108,337.340149 387.937561,338.622406 
	C373.492218,348.477386 358.838501,358.032043 344.517029,368.062042 
	C328.567871,379.231842 311.232239,383.562744 292.036255,379.995087 
	C281.659821,378.066559 272.211395,373.731750 264.472076,366.713593 
	C252.886230,356.207397 241.904236,345.034546 230.701263,334.108459 
	C230.016113,333.440247 229.644760,332.450256 229.427185,331.349365 
	C236.141891,332.433502 242.556824,333.778290 249.327133,335.331696 
	C253.497940,335.579559 257.323395,335.814362 261.126831,335.619568 
	C270.573456,335.135712 279.778259,333.978760 287.996582,328.420044 
	C299.522003,320.624603 309.670166,311.397430 318.498627,300.701355 
	C331.030243,285.518829 338.407898,268.712341 334.241058,248.017334 
	C332.872162,248.017334 331.250763,248.017334 329.629364,248.017334 
	C314.829407,248.017349 300.026001,247.850372 285.232330,248.155502 
	C282.202332,248.217987 278.932037,249.579376 276.252991,251.157623 
	C269.594666,255.080078 263.213593,259.473145 256.784424,263.164368 
	C256.836487,242.575531 257.905151,222.456924 255.381149,202.480087 
	C254.722321,202.310013 254.063492,202.139923 253.404663,201.969833 
	C245.929672,217.261978 238.454681,232.554138 230.536469,247.919144 
	C227.401428,247.950500 224.709625,247.908981 222.017822,247.867462 
	C222.022141,238.350891 222.026459,228.834305 222.489868,218.796844 
	C224.929565,218.244980 226.910202,218.214844 228.890793,218.182755 
	C234.724762,218.088226 238.055710,215.800446 238.867554,211.331528 
	C239.659012,206.974808 237.298538,203.351044 232.179016,201.054123 
	C228.578644,199.438782 224.980713,197.817947 221.381683,196.199570 
	C221.917084,194.533340 222.865524,192.882294 222.927429,191.198654 
	C224.423523,150.500702 231.621399,110.762253 242.956390,71.724243 
	C246.149719,60.726353 249.630020,49.811783 252.970764,38.464779 
	C274.574890,36.730446 295.098297,40.843884 314.777039,51.059326 
	C315.390808,61.470985 318.100311,70.525826 323.968018,78.256630 
	C341.419800,101.249687 349.346313,127.149048 349.055084,155.896866 
	C348.785553,182.504654 348.980408,209.117325 349.010040,235.727814 
	C349.018707,243.483856 353.247314,247.775360 360.848267,247.932037 
	C360.900940,267.889008 361.038940,287.846436 360.934784,307.802582 
	C360.913788,311.827423 361.765320,314.370148 365.658417,316.564453 
	C374.886230,321.765778 383.692963,327.714111 392.839417,333.652405 
M319.964264,185.296143 
	C307.011871,190.506638 294.040405,195.670441 281.116211,200.949951 
	C275.713013,203.157135 273.363068,206.822220 274.235168,211.120850 
	C275.157013,215.664551 278.489716,218.111221 284.257172,218.152313 
	C294.899719,218.228180 305.544006,218.095474 316.185883,218.209305 
	C320.718811,218.257782 323.772339,216.328186 325.732635,212.347031 
	C328.009033,207.723862 330.303406,203.108566 332.667084,198.529648 
	C334.693024,194.605011 335.697327,190.669189 332.573151,186.894165 
	C329.242432,182.869553 325.035461,183.390472 319.964264,185.296143 
z"/>
<path fill="#333333" opacity="1.000000" stroke="none" 
	d="
M360.878662,247.470184 
	C353.247314,247.775360 349.018707,243.483856 349.010040,235.727814 
	C348.980408,209.117325 348.785553,182.504654 349.055084,155.896866 
	C349.346313,127.149048 341.419800,101.249687 323.968018,78.256630 
	C318.100311,70.525826 315.390808,61.470985 315.015259,51.311275 
	C316.712738,51.485703 318.406372,52.104378 320.501801,52.869831 
	C325.050720,42.341797 329.518341,32.007713 333.978058,21.670212 
	C334.373383,20.753857 334.712372,19.813353 335.085632,18.887325 
	C336.418854,15.579809 338.761383,13.777670 342.429749,14.186505 
	C346.105957,14.596216 347.367340,17.314613 347.780853,20.441990 
	C348.606476,26.685863 349.194366,32.960732 349.939117,39.215809 
	C352.191772,58.134987 354.644257,77.032341 356.682556,95.974380 
	C358.065552,108.826515 359.582184,121.726631 359.820526,134.627792 
	C360.512512,172.081894 360.590302,209.547333 360.878662,247.470184 
z"/>
<path fill="#656E70" opacity="1.000000" stroke="none" 
	d="
M368.958252,471.829926 
	C323.013916,481.008118 276.525635,484.046082 229.874176,481.641541 
	C203.209778,480.267212 176.546341,476.816559 150.159744,472.575623 
	C106.935936,465.628571 65.359688,452.526123 24.917412,435.752869 
	C20.309105,433.841644 19.178339,431.358856 20.291180,427.077209 
	C21.294056,423.218689 22.383732,419.382721 24.061310,415.192078 
	C31.467279,413.810364 37.609848,411.228973 42.235947,406.130890 
	C46.946751,400.939453 52.843750,398.199982 59.355759,396.421692 
	C72.205292,392.912750 85.100029,389.567322 97.928970,385.985596 
	C109.291512,382.813232 120.590172,379.412109 131.917023,376.111938 
	C143.729782,381.378448 155.619446,386.480225 167.337097,391.950470 
	C184.494324,399.960114 201.311630,408.731873 218.664429,416.280945 
	C246.244797,428.279327 273.766602,426.033813 300.881104,414.100433 
	C303.313080,413.030121 305.809052,412.105103 308.809326,411.343994 
	C314.218597,416.539948 319.013885,421.586273 323.985840,426.452026 
	C334.162140,436.410980 344.531250,446.174591 354.623932,456.216644 
	C359.627197,461.194794 364.194000,466.611572 368.958252,471.829926 
z"/>
<path fill="#5E6668" opacity="1.000000" stroke="none" 
	d="
M369.353241,471.805847 
	C364.194000,466.611572 359.627197,461.194794 354.623932,456.216644 
	C344.531250,446.174591 334.162140,436.410980 323.985840,426.452026 
	C319.013885,421.586273 314.218597,416.539948 309.172699,411.290955 
	C329.685089,400.659210 350.160217,389.863953 371.128632,380.131531 
	C383.843231,374.230042 397.609253,370.968750 411.775909,371.076416 
	C417.644196,371.120972 423.667755,372.139069 429.326172,373.749329 
	C439.720825,376.707489 450.097107,379.932770 460.122437,383.943176 
	C480.184967,391.968597 490.770081,407.563995 493.973938,428.586517 
	C494.499756,432.036621 493.406830,433.883789 489.934143,435.346252 
	C451.133667,451.686249 411.058990,463.755981 369.353241,471.805847 
z"/>
<path fill="#F4CFC5" opacity="1.000000" stroke="none" 
	d="
M248.971756,335.123108 
	C242.556824,333.778290 236.141891,332.433502 229.359543,331.009033 
	C227.074020,329.557831 225.155930,328.186340 223.093048,326.051697 
	C222.626266,314.939423 222.304260,304.590302 222.367615,294.157349 
	C227.971161,292.398438 233.128372,290.492523 238.419830,289.094910 
	C250.496429,285.905151 262.660370,285.879089 274.735291,289.121246 
	C279.702179,290.454865 284.468079,292.608826 289.477722,293.671326 
	C291.157562,294.027618 293.309540,292.157806 295.245728,291.305481 
	C294.414490,289.528839 293.993927,286.645203 292.683868,286.159149 
	C285.394440,283.454803 277.994354,279.858765 270.435822,279.319611 
	C255.110870,278.226440 239.488525,277.437134 224.929901,284.470520 
	C224.065384,284.888184 222.993576,284.876709 222.014297,284.592224 
	C222.005051,275.084229 221.999725,266.048981 222.462341,257.009033 
	C232.944794,255.855011 241.704712,257.969543 249.646545,264.871490 
	C257.115234,271.362213 265.578857,270.391388 273.566650,264.934357 
	C276.040192,263.244476 278.372467,261.328552 280.937958,259.798798 
	C282.883667,258.638580 285.080170,257.185211 287.193390,257.138336 
	C298.854126,256.879761 310.525940,256.905609 322.186646,257.164062 
	C323.473999,257.192596 325.837067,259.374298 325.784393,260.464783 
	C325.547241,265.374664 325.479492,270.576050 323.779755,275.079437 
	C318.475677,289.132019 308.312195,299.810394 297.572693,309.863647 
	C286.772308,319.973907 275.040466,327.933136 259.013916,326.296783 
	C253.127487,325.695709 250.168015,328.913208 248.971756,335.123108 
M242.806763,296.002289 
	C239.521545,296.175964 235.293930,295.658234 235.304230,300.371521 
	C235.314026,304.857697 239.270813,304.967010 242.735321,304.963348 
	C252.387253,304.953156 262.039612,305.002625 271.690857,304.918976 
	C274.832703,304.891754 278.058563,304.328705 277.873108,300.171997 
	C277.704010,296.381531 274.720337,295.998840 271.695496,296.001740 
	C262.376373,296.010590 253.057220,296.002747 242.806763,296.002289 
z"/>
<path fill="#EDC0B4" opacity="1.000000" stroke="none" 
	d="
M249.327133,335.331665 
	C250.168015,328.913208 253.127487,325.695709 259.013916,326.296783 
	C275.040466,327.933136 286.772308,319.973907 297.572693,309.863647 
	C308.312195,299.810394 318.475677,289.132019 323.779755,275.079437 
	C325.479492,270.576050 325.547241,265.374664 325.784393,260.464783 
	C325.837067,259.374298 323.473999,257.192596 322.186646,257.164062 
	C310.525940,256.905609 298.854126,256.879761 287.193390,257.138336 
	C285.080170,257.185211 282.883667,258.638580 280.937958,259.798798 
	C278.372467,261.328552 276.040192,263.244476 273.566650,264.934357 
	C265.578857,270.391388 257.115234,271.362213 249.646545,264.871490 
	C241.704712,257.969543 232.944794,255.855011 221.994339,257.003357 
	C206.824493,257.010376 192.590561,257.018433 178.356644,257.026489 
	C178.356644,254.259064 178.356644,251.491653 178.356644,248.046570 
	C192.702362,248.046570 206.897675,248.046570 221.555389,247.957016 
	C224.709625,247.908981 227.401428,247.950500 230.894775,247.994217 
	C235.537338,250.543152 239.326309,253.173141 243.233063,255.614639 
	C247.674179,258.390045 252.220551,260.997040 256.721161,263.677246 
	C263.213593,259.473145 269.594666,255.080078 276.252991,251.157623 
	C278.932037,249.579376 282.202332,248.217987 285.232330,248.155502 
	C300.026001,247.850372 314.829407,248.017349 329.629364,248.017334 
	C331.250763,248.017334 332.872162,248.017334 334.241058,248.017334 
	C338.407898,268.712341 331.030243,285.518829 318.498627,300.701355 
	C309.670166,311.397430 299.522003,320.624603 287.996582,328.420044 
	C279.778259,333.978760 270.573456,335.135712 261.126831,335.619568 
	C257.323395,335.814362 253.497940,335.579559 249.327133,335.331665 
z"/>
<path fill="#F4D3CA" opacity="1.000000" stroke="none" 
	d="
M178.314819,257.480530 
	C192.590561,257.018433 206.824493,257.010376 221.526398,257.008026 
	C221.999725,266.048981 222.005051,275.084229 221.762421,284.822449 
	C216.595444,289.345764 216.708282,291.448029 221.982254,294.241180 
	C222.304260,304.590302 222.626266,314.939423 222.928055,325.773560 
	C209.359482,317.467743 198.423553,306.024536 189.295547,292.816528 
	C182.063431,282.351868 177.204575,271.059570 178.314819,257.480530 
z"/>
<path fill="#777E7F" opacity="1.000000" stroke="none" 
	d="
M131.573318,375.961365 
	C120.590172,379.412109 109.291512,382.813232 97.928970,385.985596 
	C85.100029,389.567322 72.205292,392.912750 59.355759,396.421692 
	C52.843750,398.199982 46.946751,400.939453 42.235947,406.130890 
	C37.609848,411.228973 31.467279,413.810364 24.299051,414.916534 
	C28.643078,399.982544 38.848888,389.726501 53.089497,384.150208 
	C66.392975,378.940948 80.168953,374.805756 93.976562,371.087585 
	C98.884018,369.766083 104.572014,370.536224 109.768074,371.288452 
	C116.988823,372.333710 124.081886,374.261078 131.573318,375.961365 
z"/>
<path fill="#767676" opacity="1.000000" stroke="none" 
	d="
M221.039093,196.184723 
	C224.980713,197.817947 228.578644,199.438782 232.179016,201.054123 
	C237.298538,203.351044 239.659012,206.974808 238.867554,211.331528 
	C238.055710,215.800446 234.724762,218.088226 228.890793,218.182755 
	C226.910202,218.214844 224.929565,218.244980 222.497131,218.355515 
	C213.917557,218.335342 205.785645,218.037003 197.663605,218.207779 
	C192.496368,218.316422 189.164810,216.182892 186.993942,211.675201 
	C184.833969,207.190094 182.523804,202.777573 180.335556,198.305786 
	C178.389786,194.329544 177.751099,190.245911 180.956619,186.673813 
	C184.216354,183.041290 188.270187,183.503632 192.426193,185.146255 
	C201.832550,188.863998 211.271057,192.500397 221.039093,196.184723 
z"/>
<path fill="#767676" opacity="1.000000" stroke="none" 
	d="
M320.345978,185.157379 
	C325.035461,183.390472 329.242432,182.869553 332.573151,186.894165 
	C335.697327,190.669189 334.693024,194.605011 332.667084,198.529648 
	C330.303406,203.108566 328.009033,207.723862 325.732635,212.347031 
	C323.772339,216.328186 320.718811,218.257782 316.185883,218.209305 
	C305.544006,218.095474 294.899719,218.228180 284.257172,218.152313 
	C278.489716,218.111221 275.157013,215.664551 274.235168,211.120850 
	C273.363068,206.822220 275.713013,203.157135 281.116211,200.949951 
	C294.040405,195.670441 307.011871,190.506638 320.345978,185.157379 
z"/>
<path fill="#333333" opacity="1.000000" stroke="none" 
	d="
M256.784424,263.164368 
	C252.220551,260.997040 247.674179,258.390045 243.233063,255.614639 
	C239.326309,253.173141 235.537338,250.543152 231.338013,247.921356 
	C238.454681,232.554138 245.929672,217.261978 253.404663,201.969833 
	C254.063492,202.139923 254.722321,202.310013 255.381149,202.480087 
	C257.905151,222.456924 256.836487,242.575531 256.784424,263.164368 
z"/>
<path fill="#C7A8A3" opacity="1.000000" stroke="none" 
	d="
M222.367615,294.157349 
	C216.708282,291.448029 216.595444,289.345764 221.766327,285.295166 
	C222.993576,284.876709 224.065384,284.888184 224.929901,284.470520 
	C239.488525,277.437134 255.110870,278.226440 270.435822,279.319611 
	C277.994354,279.858765 285.394440,283.454803 292.683868,286.159149 
	C293.993927,286.645203 294.414490,289.528839 295.245728,291.305481 
	C293.309540,292.157806 291.157562,294.027618 289.477722,293.671326 
	C284.468079,292.608826 279.702179,290.454865 274.735291,289.121246 
	C262.660370,285.879089 250.496429,285.905151 238.419830,289.094910 
	C233.128372,290.492523 227.971161,292.398438 222.367615,294.157349 
z"/>
<path fill="#C8A8A3" opacity="1.000000" stroke="none" 
	d="
M243.272430,296.001831 
	C253.057220,296.002747 262.376373,296.010590 271.695496,296.001740 
	C274.720337,295.998840 277.704010,296.381531 277.873108,300.171997 
	C278.058563,304.328705 274.832703,304.891754 271.690857,304.918976 
	C262.039612,305.002625 252.387253,304.953156 242.735321,304.963348 
	C239.270813,304.967010 235.314026,304.857697 235.304230,300.371521 
	C235.293930,295.658234 239.521545,296.175964 243.272430,296.001831 
z"/>
</svg>